<svg width="53" height="21" viewBox="0 0 53 21" fill="none" xmlns="http://www.w3.org/2000/svg">
<path d="M1.63086 20.3007V18.979H2.86474V20.3007H3.51415V17.2773H2.86474V18.4668H1.63086V17.2773H0.981445V20.3007H1.63086Z" fill="#333333"/>
<path d="M9.22912 17.2773V18.9129C9.22912 19.4251 9.21288 19.8876 8.57971 19.8876C7.94653 19.8876 7.93029 19.4251 7.93029 18.9129V17.2773H7.26465V19.1772C7.26465 19.9868 7.84912 20.3667 8.57971 20.3667C9.31029 20.3667 9.89476 19.9702 9.89476 19.1772V17.2773H9.22912Z" fill="#333333"/>
<path d="M15.6577 19.1934V19.8047C15.4954 19.8543 15.333 19.9038 15.0895 19.9038C14.4725 19.9038 14.2128 19.4743 14.2128 18.7969C14.2128 18.1196 14.4563 17.69 15.0245 17.69C15.4142 17.69 15.6415 17.9379 15.6415 18.2022H16.2909C16.2909 17.6074 15.7714 17.2109 14.9758 17.2109C14.3589 17.2109 13.5146 17.5909 13.5146 18.7804C13.5146 19.9864 14.3264 20.3499 15.0408 20.3499C15.6577 20.3499 16.0636 20.2177 16.2909 20.1186V18.6813H15.057V19.1769H15.6577V19.1934Z" fill="#333333"/>
<path d="M45.7587 18.1214C45.7587 17.5101 45.158 17.1797 44.606 17.1797C44.054 17.1797 43.437 17.5266 43.437 18.1214C43.437 18.5509 43.7455 18.7822 44.1676 18.9144C44.2975 18.9474 44.5248 19.03 44.6384 19.0631C45.0443 19.1787 45.1904 19.2944 45.1904 19.5422C45.1904 19.8726 44.8657 19.9882 44.6871 19.9882C44.2001 19.9882 44.0215 19.7074 44.0215 19.3604H43.3721C43.3721 20.0378 43.8591 20.4178 44.6709 20.4178C45.3041 20.4178 45.8723 20.0708 45.8723 19.4596C45.8723 18.9805 45.5151 18.7161 45.0605 18.584C44.8982 18.5344 44.7521 18.5014 44.5897 18.4518C44.2325 18.3361 44.0702 18.237 44.0702 18.0222C44.0702 17.8075 44.2325 17.6257 44.5735 17.6257C44.9307 17.6257 45.093 17.857 45.093 18.1544H45.7587V18.1214Z" fill="#333333"/>
<path d="M52.1229 18.1214C52.1229 17.5101 51.5222 17.1797 50.9702 17.1797C50.4182 17.1797 49.8013 17.5266 49.8013 18.1214C49.8013 18.5509 50.1097 18.7822 50.5319 18.9144C50.6617 18.9474 50.889 19.03 51.0027 19.0631C51.4086 19.1787 51.5547 19.2944 51.5547 19.5422C51.5547 19.8726 51.23 19.9882 51.0514 19.9882C50.5643 19.9882 50.3857 19.7074 50.3857 19.3604H49.7363C49.7363 20.0378 50.2234 20.4178 51.0352 20.4178C51.6683 20.4178 52.2366 20.0708 52.2366 19.4596C52.2366 18.9805 51.8794 18.7161 51.4248 18.584C51.2624 18.5344 51.1163 18.5014 50.954 18.4518C50.5968 18.3361 50.4344 18.237 50.4344 18.0222C50.4344 17.8075 50.5968 17.6257 50.9377 17.6257C51.2949 17.6257 51.4573 17.857 51.4573 18.1544H52.1229V18.1214Z" fill="#333333"/>
<path d="M21.454 20.4004C22.4768 20.4004 22.9314 19.7065 22.9314 18.7978C22.9314 17.8892 22.4768 17.1953 21.454 17.1953C20.4312 17.1953 19.9766 17.8892 19.9766 18.7978C19.9766 19.7065 20.4312 20.4004 21.454 20.4004ZM21.454 17.6579C22.1034 17.6579 22.2333 18.2526 22.2333 18.7813C22.2333 19.31 22.1034 19.9047 21.454 19.9047C20.8046 19.9047 20.6747 19.31 20.6747 18.7813C20.6747 18.2692 20.8046 17.6579 21.454 17.6579Z" fill="#333333"/>
<path d="M31.6981 20.3355C32.2988 20.3355 32.8508 20.0381 32.8508 19.4764C32.8508 19.0138 32.4936 18.7495 32.1365 18.7164C32.38 18.6834 32.7047 18.4191 32.7047 18.0391C32.7047 17.4939 32.2988 17.2461 31.6656 17.2461H30.3506V20.3355H31.6981ZM31 19.8564V18.9643H31.5845C31.8767 18.9643 32.1202 19.0469 32.1202 19.3938C32.1202 19.7242 31.8605 19.8399 31.5845 19.8399H31V19.8564ZM31 18.5182V17.7252H31.6007C31.8605 17.7252 32.0228 17.9069 32.0228 18.1217C32.0228 18.353 31.8118 18.5017 31.5682 18.5017H31V18.5182Z" fill="#333333"/>
<path d="M38.0952 20.4178C39.118 20.4178 39.5889 19.7074 39.5889 18.7987C39.5889 17.8736 39.118 17.1797 38.0952 17.1797C37.0724 17.1797 36.6016 17.8901 36.6016 18.7987C36.6016 19.7074 37.0724 20.4178 38.0952 20.4178ZM38.0952 17.6423C38.7609 17.6423 38.8907 18.237 38.8907 18.7822C38.8907 19.3274 38.7609 19.9221 38.0952 19.9221C37.4296 19.9221 37.2997 19.3274 37.2997 18.7822C37.2997 18.2535 37.4296 17.6423 38.0952 17.6423Z" fill="#333333"/>
<path d="M40.8227 10.2065C40.9526 11.7595 40.287 14.6672 35.9521 14.8489C34.0364 14.9315 31.6336 14.3202 30.6757 13.8742V10.1404H31.1465C31.2439 10.603 32.1531 14.0559 35.319 14.2211C37.1535 14.3037 38.5498 13.5272 38.5823 11.9743C38.631 10.1735 36.6665 9.5457 34.8968 8.8353C32.8999 8.02578 30.9679 7.21626 30.6919 5.019C30.3997 2.44175 32.7213 0.69054 35.4001 0.806186C36.8775 0.872269 38.355 1.23573 39.4914 1.69831V4.85379H39.0206C38.7446 3.13562 37.738 1.51658 35.4326 1.36789C34.0851 1.28529 32.8674 1.79743 32.8674 3.28431C32.8674 4.77118 35.3027 5.38245 37.0724 6.09285C38.8583 6.81976 40.6117 7.81101 40.8227 10.2065Z" fill="#333333"/>
<path d="M52.9185 10.2065C53.0484 11.7595 52.3828 14.6672 48.0479 14.8489C46.1322 14.9315 43.7294 14.3202 42.7715 13.8742V10.1404H43.2423C43.3397 10.603 44.2489 14.0559 47.4148 14.2211C49.2494 14.3037 50.6456 13.5272 50.6781 11.9743C50.7268 10.1735 48.7623 9.5457 46.9927 8.8353C44.9957 8.02578 43.0637 7.21626 42.804 5.019C42.4955 2.44175 44.8171 0.69054 47.4959 0.806186C48.9734 0.872269 50.4508 1.23573 51.5872 1.69831V4.85379H51.1164C50.8404 3.13562 49.8338 1.51658 47.5284 1.36789C46.1809 1.28529 44.9632 1.79743 44.9632 3.28431C44.9632 4.77118 47.3985 5.38245 49.1682 6.09285C50.9541 6.81976 52.7075 7.81101 52.9185 10.2065Z" fill="#333333"/>
<path d="M14.5381 7.86144C14.5381 3.89645 17.6877 0.691406 21.5842 0.691406C25.4807 0.691406 28.6303 3.89645 28.6303 7.86144C28.6303 11.8264 25.4807 15.0315 21.5842 15.0315C17.6877 15.0315 14.5381 11.8099 14.5381 7.86144ZM21.5842 14.4202C24.3442 14.3872 25.3021 10.8021 25.3021 7.84492C25.3021 4.87117 24.1007 1.25311 21.5842 1.25311C18.9378 1.23659 17.8663 4.8877 17.8663 7.84492C17.8663 10.8021 18.8242 14.4533 21.5842 14.4202Z" fill="#333333"/>
<path d="M1.53344 13.5276C1.53344 13.9241 1.07885 14.1223 0.656737 14.1223H0.332031V14.6345H7.50803C10.0407 14.6345 12.7358 13.445 12.7683 10.8017C12.8007 7.77834 9.76473 7.24967 8.80685 7.16707C10.3005 6.91926 12.0701 5.64715 11.989 3.82986C11.8916 1.89693 9.87838 0.988281 7.97885 0.988281L0.413208 1.0048V1.51695H0.802854C1.09509 1.51695 1.54968 1.59955 1.54968 2.02909V13.5276H1.53344ZM4.60191 14.0728V7.53053H6.37156C8.36849 7.53053 9.40755 8.96784 9.48873 10.6034C9.60238 12.5529 8.17367 14.0728 6.37156 14.0728H4.60191ZM4.60191 7.00186V1.51695H6.09556C7.55673 1.51695 8.75814 2.45863 8.82308 4.16028C8.88802 5.77932 7.68661 7.00186 6.17673 7.00186H4.60191Z" fill="#333333"/>
</svg>
