<svg width="99" height="9" viewBox="0 0 99 9" fill="none" xmlns="http://www.w3.org/2000/svg">
<path fill-rule="evenodd" clip-rule="evenodd" d="M0.550781 7.61973H1.86677V1.03979H0.550781V0.765625C2.14093 0.765625 3.62142 0.765625 5.21157 0.765625C6.19856 0.765625 7.40488 0.820458 8.28221 1.14945C8.88537 1.42362 9.21437 1.97195 9.21437 2.52028C9.21437 3.0686 8.88537 3.34277 8.39187 3.7266C8.11771 3.8911 7.95321 3.94593 7.56938 4.05559C8.11771 4.11043 8.50154 4.22009 9.04987 4.54909C9.59819 4.93292 9.87236 5.48125 9.87236 5.97474C9.87236 6.5779 9.4337 7.18106 8.66604 7.4004C7.51455 7.83906 6.19856 7.83906 4.93741 7.83906H0.550781V7.61973ZM4.06008 7.61973H4.99224C5.81473 7.61973 6.41789 7.45523 6.91139 7.29073C7.35005 7.0714 7.73388 6.68757 7.73388 5.97474C7.73388 5.15225 7.51455 4.54909 6.58239 4.27493C6.14373 4.16526 4.00525 4.22009 4.00525 4.22009V7.61973H4.06008ZM4.06008 3.8911C5.04707 3.8911 6.14373 3.94593 6.52756 3.78143C7.13072 3.50727 7.35005 3.2331 7.35005 2.46544C7.35005 1.80745 7.13072 1.47845 6.74689 1.31395C6.30823 1.09462 5.54057 1.03979 4.82774 1.03979H4.06008V3.8911ZM38.1113 7.61973H39.4272V1.03979H38.1113V0.765625C39.7014 0.765625 41.2367 0.765625 42.772 0.765625C43.759 0.765625 44.9654 0.820458 45.8427 1.14945C46.5007 1.42362 46.7748 1.97195 46.7748 2.52028C46.7748 3.0686 46.4458 3.34277 45.9524 3.7266C45.6782 3.8911 45.5137 3.94593 45.1299 4.05559C45.6782 4.11043 46.062 4.22009 46.6652 4.54909C47.2135 4.93292 47.4328 5.48125 47.4328 5.97474C47.4328 6.5779 46.9942 7.18106 46.2813 7.4004C45.1299 7.83906 43.759 7.83906 42.5527 7.83906H38.1113V7.61973ZM41.6754 7.61973H42.6075C43.43 7.61973 44.0332 7.45523 44.5267 7.29073C44.9654 7.0714 45.3492 6.68757 45.3492 5.97474C45.3492 5.15225 45.1847 4.54909 44.1977 4.27493C43.759 4.16526 41.6754 4.22009 41.6754 4.22009V7.61973ZM41.6754 3.8911C42.6624 3.8911 43.7042 3.94593 44.1429 3.78143C44.746 3.50727 44.9654 3.2331 44.9654 2.46544C44.9654 1.80745 44.6912 1.47845 44.3074 1.25912C43.8687 1.03979 43.101 0.984956 42.3882 0.984956H41.6754V3.8911ZM13.4365 6.08441V1.03979H11.956V0.765625H16.891V1.03979H15.4653V6.02958C15.4653 6.52307 15.6846 6.85207 16.1233 7.12623C16.5071 7.45523 17.0006 7.61973 17.9328 7.61973C19.0294 7.61973 19.8519 7.4004 20.2906 6.96173C20.7841 6.5779 21.0034 6.08441 21.0034 5.59091V1.03979H19.5778V0.765625H23.0322V1.03979H21.6066V5.64574C21.6066 6.35857 21.2776 6.96173 20.6744 7.4004C19.9616 7.83906 19.2488 8.05839 17.9876 8.05839C16.7813 8.05839 15.4105 7.89389 14.6428 7.56489C13.8203 7.2359 13.4365 6.7424 13.4365 6.08441ZM26.4867 7.61973V1.03979H25.061V0.765625H30.5443C31.7507 0.820458 32.3538 0.765625 33.1763 1.09462C33.7246 1.31395 34.1085 1.80745 34.1085 2.46544C34.1085 3.83626 32.8473 4.00076 31.97 4.16526C32.7376 4.22009 33.1763 4.32976 33.6698 4.54909C34.1633 4.82325 34.3826 5.26192 34.4923 5.48125C34.602 5.86508 34.5471 6.30374 34.5471 6.68757C34.602 7.4004 34.9858 7.67456 35.5889 7.61973C35.7534 7.56489 35.9179 7.51006 36.0276 7.4004L36.1921 7.72939C35.8083 8.00356 35.3696 8.11322 34.931 8.05839C34.2181 8.05839 33.615 7.94872 33.1763 7.67456C32.7376 7.4004 32.4635 7.01657 32.3538 6.46824C32.3538 6.02958 32.3538 5.59091 32.2441 5.15225C31.97 4.43942 31.0378 4.32976 30.4347 4.32976H28.68V7.67456H30.1605V7.89389H24.9514V7.61973H26.4867ZM28.6252 3.94593H30.5443C31.4765 3.94593 32.0248 3.5621 32.0248 2.41061C32.0248 1.47845 31.2572 0.984956 30.4347 0.984956H28.6252V3.94593ZM76.9329 7.61973V1.03979H75.5072V0.765625H80.9905C82.1968 0.820458 82.8 0.765625 83.5676 1.09462C84.1708 1.31395 84.5546 1.80745 84.5546 2.46544C84.5546 3.83626 83.2935 4.00076 82.3613 4.16526C83.1838 4.22009 83.5677 4.32976 84.0611 4.54909C84.6095 4.82325 84.8288 5.26192 84.8836 5.48125C85.0481 5.86508 84.9933 6.30374 84.9933 6.68757C85.0481 7.4004 85.432 7.67456 86.0351 7.61973C86.1996 7.56489 86.3641 7.51006 86.4738 7.4004L86.6383 7.72939C86.3093 8.00356 85.8158 8.11322 85.3771 8.05839C84.6643 8.05839 84.116 7.94872 83.6773 7.67456C83.2387 7.4004 82.9097 7.01657 82.8548 6.46824C82.8 6.02958 82.8 5.59091 82.6355 5.15225C82.4162 4.43942 81.4292 4.32976 80.826 4.32976H79.1262V7.67456H80.6067V7.89389H75.3976V7.61973H76.9329ZM79.0714 3.94593H80.9357C81.8678 3.94593 82.471 3.5621 82.471 2.41061C82.471 1.47845 81.7033 0.984956 80.8809 0.984956H79.0714V3.94593ZM63.8827 7.61973V1.03979H62.457V0.765625H67.9403C69.1466 0.820458 69.7498 0.765625 70.5723 1.09462C71.1206 1.31395 71.5593 1.80745 71.5593 2.46544C71.5593 3.83626 70.2981 4.00076 69.366 4.16526C70.1336 4.22009 70.5723 4.32976 71.0658 4.54909C71.5593 4.82325 71.7786 5.26192 71.8883 5.48125C72.0528 5.86508 71.9431 6.30374 71.9431 6.68757C71.9979 7.4004 72.3818 7.67456 72.9849 7.61973C73.1494 7.56489 73.3139 7.51006 73.4236 7.4004L73.5881 7.72939C73.2591 8.00356 72.7656 8.11322 72.3269 8.05839C71.6141 8.05839 71.0109 7.94872 70.5723 7.67456C70.1336 7.4004 69.8595 7.01657 69.7498 6.46824C69.695 6.02958 69.695 5.59091 69.5853 5.15225C69.3111 4.43942 68.379 4.32976 67.7758 4.32976H66.0212V7.67456H67.5565V7.89389H62.3474V7.61973H63.8827ZM66.076 3.94593H67.9951C68.9273 3.94593 69.4756 3.5621 69.4756 2.41061C69.4756 1.47845 68.708 0.984956 67.8855 0.984956H66.076V3.94593ZM49.9003 7.61973H51.326V1.03979H49.9003V0.765625H58.9477V2.9041H58.6187C58.4542 2.35578 58.0704 1.58812 57.6317 1.31395C57.3027 1.14945 56.8092 1.03979 55.9868 1.03979H53.5193V4.05559C54.0676 4.05559 54.8353 4.11043 55.3288 3.8911C55.7126 3.7266 55.9868 3.28793 56.0416 2.84927H56.4254V5.70058H56.0416C55.9868 5.15225 55.6578 4.82325 55.2739 4.65875C54.8901 4.49426 54.1773 4.49426 53.4644 4.49426V7.67456H56.2061C57.4124 7.67456 57.7962 7.51006 58.2897 7.2359C58.7284 6.9069 59.1122 6.19407 59.2219 5.48125H59.5509V7.89389H49.9003V7.61973ZM90.2573 7.61973H91.9571V4.54909L88.6123 1.03979H87.1866V0.765625H92.6699V1.03979H91.0249L93.8214 4.16526L96.7275 1.03979H94.8084V0.765625H98.866V1.03979H97.3307L94.1504 4.54909V7.61973H95.8502V7.89389H90.3669V7.61973H90.2573Z" fill="#333333"/>
</svg>
