<svg width="73" height="21" viewBox="0 0 73 21" fill="none" xmlns="http://www.w3.org/2000/svg">
<path fill-rule="evenodd" clip-rule="evenodd" d="M50.5158 9.05365C50.1461 9.05365 49.8585 8.84826 49.8585 8.47855C49.8585 7.90345 50.4336 7.16404 51.0087 7.16404C51.3784 7.16404 51.5427 7.49267 51.5427 7.8213C51.5838 8.43747 51.173 9.05365 50.5158 9.05365Z" fill="#333333"/>
<path fill-rule="evenodd" clip-rule="evenodd" d="M13.9148 17.3104C11.6555 18.9125 8.49248 20.8021 5.65807 20.8021C2.74149 20.8021 0.646484 18.8303 0.646484 15.9138C0.646484 14.3117 1.26266 12.7507 1.961 11.354C3.31659 8.64286 5.32943 6.17815 7.67091 4.24748C9.47836 2.76866 11.6555 1.61844 13.9559 1.04334C14.5721 0.879012 15.2293 0.796875 15.8455 0.796875C16.6671 0.796875 17.5297 0.920131 18.2692 1.2898L19.3372 1.86491C19.5426 1.98816 19.7891 1.98816 19.9945 1.98816C20.7749 1.98816 21.4322 1.53631 22.0484 1.0844L22.2949 1.37198C20.8571 2.31676 20.2409 3.34372 19.6658 4.94579L19.4194 4.78147C19.5426 4.4118 19.6248 4.08315 19.6248 3.71344C19.6248 1.90597 17.3654 1.04334 15.8044 1.04334C14.6543 1.04334 13.504 1.41305 12.4771 1.90597C8.78002 3.71344 5.82238 6.99972 4.01493 10.6968C3.15227 12.4632 2.49502 14.4349 2.49502 16.4478C2.49502 18.7893 3.80953 20.3913 6.19208 20.3913C8.74682 20.3913 11.6507 18.4906 13.7728 17.1016L13.9559 16.9818C14.2845 16.2013 14.6543 15.503 15.1883 14.8457C16.7903 12.7507 19.3372 10.6146 22.0895 10.6146C23.5272 10.6146 24.2255 11.313 24.2666 12.7096L25.2114 11.1076H26.9367L22.8699 18.2142L22.8248 18.3038C22.6704 18.6093 22.5002 18.9457 22.5002 19.2822C22.5002 19.693 22.911 19.9394 23.3218 19.9394C24.3019 19.9394 25.3568 19.1163 26.0938 18.5413L26.1973 18.4606C28.128 16.9818 29.8944 15.2565 31.0446 13.0794L32.1537 11.0665H34.0022L33.5093 11.9702C34.413 11.4362 35.481 10.9844 36.5491 10.9844C37.1653 10.9844 37.7404 11.2719 37.7404 11.9291C37.7404 12.4221 37.4939 12.7918 37.1242 13.1204C37.2063 13.1615 37.2474 13.2026 37.3296 13.2026C37.64 13.2026 37.9138 13.0192 38.151 12.8605L38.1922 12.8329C39.7532 11.847 41.191 10.4914 42.0947 8.93044L43.3681 6.75326H45.0934L42.9163 10.5736H45.4631L45.3399 10.9022H42.793L38.5209 18.2963C38.3565 18.5839 38.1922 18.9125 38.1922 19.2411C38.1922 19.6519 38.6852 19.8573 39.0549 19.8573C39.8175 19.8573 40.5016 19.3866 41.1457 18.9436L41.191 18.9125C42.3412 18.0909 43.4092 17.0639 44.3951 16.0781C45.1345 15.3387 45.8328 14.5992 46.449 13.7777C46.7776 13.3258 47.0652 12.874 47.3527 12.4221L48.1332 11.1486H49.8174L45.6274 18.5428C45.4631 18.7893 45.381 19.1179 45.381 19.4054C45.381 19.734 45.6274 20.0216 45.9561 20.0216C46.9419 20.0216 48.0511 19.2001 48.7905 18.5428L51.8303 15.8727C53.5145 13.9009 56.2668 10.779 59.1012 10.779C60.0049 10.779 61.0319 11.2308 61.0319 12.2578C61.0319 13.0383 60.4978 13.7777 60.0049 14.3117C58.8958 15.503 57.2526 16.2013 55.7327 16.6121C54.9523 16.8175 54.1718 16.8586 53.3913 16.8586C53.1448 17.4337 52.8983 18.0088 52.8983 18.6249C52.8983 19.4876 53.6788 20.227 54.5415 20.227C56.6365 20.227 59.7173 18.0498 61.2373 16.8586C62.5107 15.8316 63.702 14.6403 64.77 13.408C64.8314 13.3343 64.8937 13.2606 64.9563 13.1867C65.3122 12.7658 65.6756 12.3362 65.9202 11.847L66.331 11.1076H68.0563L66.8239 13.4901C68.1795 12.2578 69.8227 11.0254 71.7123 11.0254C72.3285 11.0254 72.8214 11.3951 72.8214 12.0524C72.8214 12.6275 72.2874 13.3258 71.6712 13.3258C71.3426 13.3258 71.0139 12.9972 71.0139 12.6686C71.0139 12.1345 71.589 11.7648 72.082 11.7648C72.1641 11.7648 72.2874 11.7648 72.3695 11.8059C72.2052 11.4773 71.9587 11.313 71.589 11.313C70.6853 11.313 69.8227 11.7648 69.0832 12.1756C67.399 13.1615 66.1256 14.7225 65.1397 16.3656L62.675 20.5556H60.9086L64.8932 13.6955C64.0306 14.7225 63.1269 15.6673 62.0999 16.53C60.9497 17.5158 59.7173 18.3785 58.4439 19.1589C57.1294 19.9394 55.6095 20.6789 54.0485 20.6789C52.5286 20.6789 51.132 19.8162 51.132 18.1731C51.132 17.7155 51.2381 17.2934 51.3519 16.8409L51.3784 16.7353C51.2476 16.8558 51.1116 16.9827 50.9709 17.1139C49.4319 18.5491 47.3243 20.5145 45.2166 20.5145C44.354 20.5145 43.6557 20.227 43.6557 19.2822C43.6557 18.755 43.9564 18.2578 44.2233 17.8165C44.2684 17.7421 44.3125 17.6691 44.354 17.598L45.7507 15.1333C44.354 16.6532 42.9163 18.132 41.232 19.2822C40.2872 19.9394 39.2192 20.5556 38.069 20.5556C37.3296 20.5556 36.5491 20.1038 36.5491 19.2822C36.5491 18.6787 36.8866 18.1059 37.1903 17.5902C37.2164 17.546 37.2422 17.5022 37.2675 17.4588C37.2886 17.4227 37.3093 17.387 37.3296 17.3515L40.9034 11.0665C40.2462 11.6827 39.5889 12.2578 38.8905 12.7918C38.8395 12.8292 38.7878 12.8675 38.7356 12.9063L38.7309 12.9097C38.1543 13.3376 37.5059 13.8187 36.7545 13.8187C36.2615 13.8187 35.8508 13.5312 35.8508 12.9972C35.8508 12.4632 36.3026 12.0524 36.8366 12.0524C37.0009 12.0524 37.1242 12.0935 37.2474 12.1756C37.2885 12.0935 37.3296 11.9702 37.3296 11.847C37.3296 11.4773 36.8777 11.2719 36.5902 11.2719C35.6864 11.2719 34.7416 11.7237 34.0022 12.1345C33.2628 12.5864 32.7699 13.3258 32.3591 14.0652L28.6209 20.5556H26.8135L29.4836 15.9138C27.7172 17.8034 24.8006 20.5967 22.0895 20.5967C21.35 20.5967 20.6928 20.227 20.6928 19.4465C20.6928 18.9535 20.8982 18.5017 21.1036 18.0498C19.8301 19.4054 18.0638 20.8021 16.092 20.8021C14.8186 20.8021 13.7094 19.8984 13.7094 18.5839C13.6684 18.132 13.7916 17.7212 13.9148 17.3104ZM23.9791 12.381C23.9791 11.4362 23.2397 10.8611 22.3359 10.8611C21.309 10.8611 20.4874 11.354 19.7069 11.9291C18.1048 13.0794 16.7493 14.7225 15.8866 16.4888C15.558 17.1461 15.2704 17.8034 15.2704 18.5839C15.2704 19.4054 15.7634 20.1859 16.6671 20.1859C18.7621 20.1859 20.9803 17.8444 22.2127 16.2424C22.9521 15.2154 23.9791 13.6545 23.9791 12.381ZM54.0075 16.4888H53.5145L53.63 16.2959C54.6632 14.5683 56.7574 11.0665 58.8136 11.0665C59.3066 11.0665 59.8406 11.2719 59.8406 11.8059C59.8406 12.7918 58.8958 14.0241 58.1975 14.6814C57.1294 15.7084 55.5274 16.4888 54.0075 16.4888Z" fill="#333333"/>
</svg>
