<svg width="95" height="15" viewBox="0 0 95 15" fill="none" xmlns="http://www.w3.org/2000/svg">
<path fill-rule="evenodd" clip-rule="evenodd" d="M91.543 0.601562H94.8379C94.4849 0.895757 94.2496 1.24879 94.2496 1.7195V13.1343C94.2496 13.605 94.4849 13.958 94.8379 14.2522H91.543C91.896 13.958 92.1314 13.605 92.1314 13.1343V1.7195C92.1314 1.18995 91.896 0.836918 91.543 0.601562Z" fill="#333333"/>
<path fill-rule="evenodd" clip-rule="evenodd" d="M14.5818 5.48349C14.0522 4.30671 13.4638 3.18877 12.4636 2.30619C11.4045 1.42361 10.0512 0.835218 8.63906 0.835218C4.9322 0.835218 3.28472 4.18904 3.28472 7.48402C3.28472 10.6613 4.87337 13.8975 8.46254 13.8975C9.93351 13.8975 11.3456 13.2502 12.2282 12.1323V9.54338C12.2282 8.83731 11.9929 8.3666 11.4633 7.95473H15.2879C14.876 8.42544 14.6406 8.89615 14.6406 9.54338V12.1323C12.8755 13.7798 10.7573 14.7212 8.34486 14.7212C4.04962 14.78 0.578125 11.6616 0.578125 7.3075C0.578125 3.01226 3.99078 0.0703125 8.16834 0.0703125C10.7573 0.0703125 12.8755 1.01174 14.5818 2.95342V5.48349Z" fill="#333333"/>
<path fill-rule="evenodd" clip-rule="evenodd" d="M23.8779 0.601562H27.4671C26.9964 0.954596 26.8199 1.36647 26.8199 1.95486V10.31C26.8199 12.6047 29.5265 13.7226 31.4682 13.7226C33.4098 13.7226 35.9399 12.6047 35.9399 10.3688V1.95486C35.9399 1.36647 35.8222 1.01343 35.4104 0.601562H37.352C36.9402 1.01343 36.8225 1.42531 36.8225 1.95486V10.3688C36.8225 13.3696 33.2922 14.5464 30.8209 14.5464C28.2908 14.5464 24.584 13.4284 24.584 10.31V1.95486C24.5252 1.36647 24.2898 0.954596 23.8779 0.601562Z" fill="#333333"/>
<path fill-rule="evenodd" clip-rule="evenodd" d="M59.7114 5.54233C59.2407 4.36555 58.6523 3.30645 57.7109 2.42387C56.6518 1.48245 55.3573 0.894057 53.9452 0.894057C50.2384 0.894057 48.3555 4.1302 48.3555 7.42518C48.3555 10.779 50.2972 13.9563 53.9452 13.9563C56.6518 13.9563 58.5935 12.0735 59.7114 9.77873V12.25C58.0639 13.8975 55.8869 14.78 53.4745 14.78C49.0616 14.78 45.7666 11.9558 45.7666 7.42518C45.8254 2.95342 49.0027 0.0703125 53.298 0.0703125C55.7104 0.0703125 58.0051 0.894057 59.7114 2.54155V5.54233Z" fill="#333333"/>
<path fill-rule="evenodd" clip-rule="evenodd" d="M82.7756 5.54209C82.3049 4.36531 81.7165 3.30621 80.7751 2.42362C79.716 1.4822 78.4215 0.893812 77.0094 0.893812C73.3026 0.893812 71.4786 4.12995 71.4786 7.42493C71.4786 10.7787 73.4202 13.956 77.0683 13.956C79.7748 13.956 81.7165 12.0732 82.8345 9.77849V12.2497C81.1281 13.8972 79.0099 14.7798 76.5975 14.7798C72.1846 14.7798 68.8896 11.9555 68.8896 7.42493C68.8896 3.01201 72.067 0.128906 76.3622 0.128906C78.7746 0.128906 81.0693 0.952651 82.7756 2.60014V5.54209Z" fill="#333333"/>
</svg>
