<svg width="79" height="32" viewBox="0 0 79 32" fill="none" xmlns="http://www.w3.org/2000/svg">
<g opacity="0.8" clip-path="url(#clip0_4691_773)">
<path d="M2.18275 24.3777V31.6261H0V15.6055H10.6667L10.955 17.1293C10.9138 17.1293 10.9138 17.1293 10.8726 17.0881C10.7902 17.0881 10.749 17.0881 10.749 17.0469C10.5843 16.7998 9.96654 16.5527 8.93694 16.3056C7.86615 16.0585 6.46589 15.9349 4.69498 15.9349H2.18275V23.9658H9.14286V24.3365H2.18275V24.3777Z" fill="black"/>
<path d="M18.2854 27.0975C18.2854 26.6857 18.2854 26.2738 18.2854 25.862C18.2854 25.4089 18.2442 24.9971 18.2442 24.5441C18.0795 24.9147 17.7912 25.1618 17.3794 25.409C16.9675 25.6149 16.5145 25.8208 16.0203 25.9855C15.5261 26.1503 14.9907 26.315 14.4553 26.4385C13.9199 26.6033 13.3845 26.768 12.9315 27.0151C12.4785 27.2622 12.1078 27.5505 11.8195 27.9212C11.5313 28.2918 11.3665 28.786 11.3665 29.3626C11.3665 30.0216 11.5313 30.4746 11.8607 30.8041C12.1902 31.1335 12.6432 31.2983 13.2198 31.2983C13.7964 31.2983 14.5377 31.1335 15.3202 30.7629C16.1439 30.3922 17.0499 29.8568 18.0383 29.1567C17.7912 29.4038 17.4618 29.6921 17.0499 30.0216C16.6381 30.351 16.1439 30.6393 15.6085 30.9276C15.0731 31.2159 14.5377 31.463 14.0023 31.6277C13.4257 31.8337 12.9315 31.916 12.4785 31.916C12.1078 31.916 11.696 31.8748 11.3253 31.7925C10.9547 31.7101 10.584 31.5866 10.2545 31.3806C9.92507 31.1747 9.67797 30.9276 9.47205 30.5981C9.26613 30.2687 9.14258 29.8156 9.14258 29.2802C9.14258 28.8272 9.26613 28.4154 9.51323 28.0859C9.76034 27.7564 10.0898 27.4682 10.5017 27.221C10.9135 26.9739 11.4077 26.768 11.9431 26.6033C12.4785 26.4386 13.0139 26.2738 13.5905 26.1503C14.167 25.9855 14.7024 25.862 15.2378 25.7384C15.7732 25.6149 16.2674 25.4501 16.6793 25.2854C17.1323 25.1207 17.4618 24.9147 17.75 24.7088C17.9971 24.4617 18.1619 24.2146 18.2031 23.8851C18.1207 23.3909 18.0383 22.9379 17.8736 22.4849C17.75 22.0319 17.5441 21.6612 17.297 21.3317C17.0499 21.0023 16.7204 20.7552 16.3498 20.5492C15.9791 20.3433 15.4849 20.3021 14.9495 20.3021C14.1258 20.3433 13.5081 20.4257 13.0962 20.5904C12.6844 20.7552 12.3961 20.9611 12.1902 21.2082C11.9843 21.4553 11.9431 21.7024 11.9431 21.9907C11.9431 22.279 11.9431 22.5261 11.9431 22.7732C11.9431 23.0615 11.8607 23.2674 11.696 23.4321C11.5313 23.5969 11.3253 23.638 11.0782 23.638C10.8311 23.638 10.584 23.5557 10.3369 23.3497C10.0898 23.1438 10.0074 22.8967 10.0074 22.5673C10.0074 22.1142 10.2134 21.7024 10.584 21.3729C10.9547 21.0434 11.4489 20.7552 11.9843 20.5492C12.5197 20.3433 13.0962 20.1786 13.6728 20.0962C14.2494 20.0138 14.7024 19.9727 15.0731 19.9727C16.2262 19.9727 17.1735 20.1374 17.8736 20.4669C18.5737 20.7963 19.1091 21.2494 19.4798 21.7848C19.8504 22.3201 20.0975 22.9791 20.2211 23.7204C20.3446 24.4617 20.3858 25.203 20.3858 26.0267V31.6689H18.3266V27.0975H18.2854Z" fill="black"/>
<path d="M24.9167 30.8023C25.1226 31.0906 25.452 31.2965 25.9051 31.42C26.3581 31.5436 26.8111 31.626 27.3465 31.626C27.8407 31.626 28.3761 31.5848 28.8703 31.4612C29.4057 31.3377 29.8587 31.1729 30.2706 30.967C30.6824 30.7611 31.0531 30.514 31.3002 30.1845C31.5885 29.8962 31.712 29.5256 31.712 29.1137C31.712 28.6195 31.5061 28.2077 31.0531 27.9194C30.6001 27.6311 30.0235 27.384 29.3645 27.1781C28.7056 26.9722 27.9643 26.7662 27.1818 26.6015C26.3993 26.4368 25.658 26.1897 24.999 25.9426C24.3401 25.6543 23.7635 25.3248 23.3105 24.8718C22.8575 24.4187 22.6515 23.8422 22.6515 23.142C22.6515 22.4831 22.8163 21.9477 23.1457 21.5359C23.4752 21.124 23.9282 20.7946 24.4224 20.5474C24.9578 20.3003 25.4932 20.1356 26.111 20.0532C26.7288 19.9709 27.2641 19.9297 27.7995 19.9297C28.0466 19.9297 28.3761 19.9709 28.788 20.0121C29.1998 20.0532 29.6116 20.1768 29.9823 20.3415C30.3529 20.5063 30.7236 20.671 31.0119 20.9181C31.3002 21.1652 31.4649 21.4947 31.4649 21.8653C31.4649 22.1124 31.3825 22.3184 31.1766 22.4831C30.9707 22.6478 30.7648 22.7302 30.5177 22.7302C30.1882 22.7302 29.9823 22.6478 29.8176 22.5243C29.6528 22.4007 29.5705 22.236 29.4881 22.0301C29.4057 21.8653 29.3645 21.6594 29.3233 21.4535C29.2822 21.2476 29.241 21.0828 29.1174 20.9593C28.9115 20.7122 28.6644 20.5063 28.4173 20.4239C28.129 20.3415 27.7995 20.2592 27.4289 20.2592C27.017 20.2592 26.6052 20.3003 26.1934 20.3827C25.7403 20.4651 25.3697 20.5886 24.999 20.7534C24.6284 20.9181 24.3401 21.1652 24.1342 21.4123C23.8871 21.7006 23.8047 22.0301 23.8047 22.4007C23.8047 22.7714 23.9282 23.1009 24.2165 23.348C24.4636 23.5951 24.8343 23.801 25.2461 24.0069C25.658 24.1716 26.1522 24.3364 26.7288 24.4599C27.2641 24.5835 27.8407 24.707 28.4173 24.8718C28.9939 25.0365 29.5705 25.2012 30.1058 25.366C30.6412 25.5307 31.1354 25.7778 31.5885 26.0249C32.0003 26.272 32.371 26.6015 32.6181 26.9722C32.8652 27.3428 33.0299 27.837 33.0299 28.3724C33.0299 28.9902 32.8652 29.5256 32.5357 29.9786C32.2062 30.4316 31.7944 30.7611 31.259 31.0494C30.7236 31.3377 30.147 31.5436 29.4881 31.6671C28.8291 31.7907 28.129 31.8731 27.4289 31.8731C27.1818 31.8731 26.9347 31.8731 26.6052 31.8319C26.2757 31.7907 25.9463 31.7907 25.5756 31.7083C25.2049 31.6671 24.8755 31.5848 24.5048 31.4612C24.1342 31.3789 23.8459 31.2553 23.5576 31.0906C23.2693 30.9258 23.0634 30.7611 22.8575 30.5552C22.6927 30.3492 22.6104 30.1021 22.6104 29.7727C22.6104 29.5256 22.6927 29.3608 22.8986 29.1961C23.1046 29.0314 23.3105 28.949 23.5576 28.949C23.8871 28.949 24.093 29.0314 24.2577 29.1549C24.4224 29.2785 24.5048 29.4432 24.5872 29.6491C24.6284 29.855 24.7107 30.0198 24.7107 30.2257C24.7519 30.514 24.8343 30.6787 24.9167 30.8023Z" fill="black"/>
<path d="M34.5947 15.6081L36.6539 14.4961V31.6698H34.5947V15.6081ZM36.901 21.3326C37.0658 21.0855 37.3129 20.8796 37.56 20.7149C37.8071 20.5501 38.0954 20.3854 38.4248 20.303C38.7543 20.2207 39.0426 20.0971 39.3721 20.0559C39.7015 20.0148 39.9898 19.9736 40.3193 19.9736C41.2665 19.9736 42.049 20.0971 42.6668 20.303C43.2846 20.509 43.82 20.8384 44.1906 21.2091C44.6025 21.5798 44.8907 22.0328 45.0967 22.527C45.3026 23.0212 45.4673 23.5566 45.5497 24.092C45.6321 24.6686 45.6732 25.2039 45.7144 25.8217C45.7144 26.3983 45.7144 26.9749 45.7144 27.5103V31.6698H43.6552V27.3043C43.6552 26.8925 43.6552 26.4807 43.6552 25.9864C43.6552 25.4922 43.614 24.998 43.5729 24.4626C43.5317 23.9272 43.4081 23.433 43.2846 22.9388C43.161 22.4446 42.9551 22.0328 42.708 21.6209C42.4609 21.2503 42.0902 20.9208 41.6784 20.7149C41.2665 20.4678 40.7312 20.3442 40.0722 20.3442C39.5368 20.3442 39.125 20.3854 38.7543 20.4678C38.3837 20.5501 38.0954 20.6325 37.8483 20.7149C37.6012 20.7973 37.3952 20.9208 37.2717 21.0444C37.107 21.1679 36.9834 21.2503 36.901 21.3326Z" fill="black"/>
<path d="M50.3811 19.6002V31.6259H48.3219V20.7121L50.3811 19.6002Z" fill="black"/>
<path d="M47.7574 16.0577C47.4328 16.2284 46.6309 16.3042 46.6309 16.3042V16.6076C46.6309 16.6076 47.4328 16.6835 47.7574 16.8541C48.0629 17.0248 48.3302 17.2523 48.5212 17.5557C48.7312 17.8591 48.8649 18.2005 48.9603 18.5987C49.0558 18.9969 49.094 19.3401 49.094 19.3401H49.3613C49.3613 19.3401 49.4555 18.7957 49.495 18.5987C49.5904 18.2005 49.7432 17.8591 49.9341 17.5557C50.1251 17.2523 50.3733 17.0248 50.6979 16.8541C51.0225 16.6835 51.8245 16.6076 51.8245 16.6076V16.3042C51.8245 16.3042 51.0225 16.2284 50.6979 16.0577C50.3924 15.8871 50.1251 15.6595 49.9341 15.3561C49.7241 15.0527 49.5904 14.7114 49.495 14.3132C49.4512 14.0785 49.3613 13.4805 49.3613 13.4805H49.094C49.094 13.4805 49.0052 14.1615 48.9603 14.3132C48.8649 14.7114 48.7121 15.0527 48.5212 15.3561C48.3302 15.6595 48.082 15.8871 47.7574 16.0577Z" fill="black"/>
<path d="M52.8584 25.9426C52.8584 25.1601 52.982 24.4187 53.2291 23.6774C53.4762 22.9361 53.888 22.3184 54.4234 21.7418C54.9588 21.1652 55.6177 20.7534 56.4002 20.4239C57.1827 20.0944 58.13 19.9297 59.2007 19.9297C60.2715 19.9297 61.2188 20.0944 62.0013 20.4239C62.7838 20.7534 63.4427 21.2064 63.9781 21.783C64.5135 22.3595 64.8841 22.9773 65.1312 23.7186C65.3783 24.4187 65.5019 25.2012 65.5019 25.9426C65.5019 26.7251 65.3783 27.4664 65.1312 28.2077C64.8841 28.949 64.4723 29.5667 63.9369 30.1433C63.4015 30.7199 62.7426 31.1317 61.9601 31.4612C61.1776 31.7907 60.2303 31.9554 59.2007 31.9554C58.1711 31.9554 57.1827 31.7907 56.4002 31.4612C55.6177 31.1317 54.9588 30.6787 54.4234 30.1021C53.888 29.5256 53.5173 28.9078 53.2291 28.1665C52.982 27.4664 52.8584 26.7251 52.8584 25.9426ZM58.13 20.4239C57.4298 20.4239 56.8532 20.5886 56.4002 20.9181C55.9472 21.2476 55.5765 21.6594 55.3294 22.1536C55.0823 22.6478 54.9588 23.2656 54.8764 23.9245C54.8352 24.5835 54.8764 25.2836 55 25.9837C55.1235 26.6839 55.3294 27.3428 55.6589 28.0429C55.9472 28.7019 56.3179 29.2785 56.7709 29.8139C57.2239 30.3081 57.7181 30.7611 58.2947 31.0494C58.8713 31.3788 59.489 31.5436 60.1892 31.5436C60.8893 31.5436 61.4247 31.3788 61.8777 31.0494C62.3307 30.7199 62.6602 30.3081 62.9073 29.8139C63.1544 29.3196 63.278 28.7019 63.3603 28.0429C63.4015 27.384 63.3603 26.6839 63.2368 25.9837C63.1132 25.2836 62.8661 24.6247 62.5778 23.9245C62.2895 23.2656 61.9189 22.689 61.4659 22.1536C61.0128 21.6594 60.5186 21.2064 59.9421 20.9181C59.3655 20.6298 58.8301 20.4239 58.13 20.4239Z" fill="black"/>
<path d="M67.2686 20.7135L69.3278 19.6016V31.6273H67.2686V20.7135ZM69.5337 21.3313C69.6984 21.0842 69.9455 20.8783 70.1926 20.7135C70.4397 20.5488 70.728 20.3841 71.0575 20.3017C71.387 20.2193 71.6752 20.0958 72.0047 20.0546C72.3342 20.0134 72.6225 19.9722 72.9519 19.9722C73.8992 19.9722 74.6817 20.0958 75.2994 20.3017C75.9172 20.5076 76.4526 20.8371 76.8233 21.2077C77.2351 21.5784 77.5234 22.0314 77.7293 22.5256C77.9352 23.0198 78.1 23.5552 78.1823 24.0906C78.2647 24.6672 78.3059 25.2026 78.3471 25.8204C78.3471 26.3969 78.3471 26.9735 78.3471 27.5089V31.6685H76.2879V27.303C76.2879 26.8911 76.2879 26.4793 76.2879 25.9851C76.2879 25.4909 76.2467 24.9967 76.2055 24.4613C76.1643 23.9259 76.0408 23.4317 75.9172 22.9375C75.7937 22.4433 75.5877 22.0314 75.3406 21.6196C75.0935 21.2489 74.7229 20.9195 74.311 20.7135C73.8992 20.4664 73.3638 20.3429 72.7048 20.3429C72.1695 20.3429 71.7576 20.3841 71.387 20.4664C71.0163 20.5488 70.728 20.6312 70.4809 20.7135C70.2338 20.7959 70.0279 20.9195 69.9043 21.043C69.7396 21.1666 69.616 21.2489 69.5337 21.3313Z" fill="black"/>
<path d="M22.4818 0.863281C24.1292 0.863281 25.5706 1.11039 26.8061 1.56341C28.0417 2.05762 29.0713 2.67538 29.895 3.45788C30.7186 4.24037 31.3364 5.10524 31.7482 6.13484C32.1601 7.12326 32.366 8.15286 32.366 9.22364C32.366 10.2532 32.1601 11.2828 31.7482 12.2713C31.3364 13.2597 30.7186 14.1657 29.895 14.9482C29.0713 15.7307 28.0417 16.3485 26.8061 16.8427C25.5706 17.3369 24.1292 17.584 22.4818 17.584C20.8345 17.584 19.393 17.3369 18.1575 16.8427C16.922 16.3485 15.8924 15.7307 15.0687 14.9482C14.245 14.1657 13.6273 13.2597 13.2154 12.2713C12.8036 11.2828 12.5977 10.2532 12.5977 9.22364C12.5977 8.15286 12.8036 7.16444 13.2154 6.13484C13.6273 5.14642 14.245 4.24037 15.0687 3.45788C15.8924 2.67538 16.922 2.05762 18.1575 1.56341C19.393 1.11039 20.8345 0.863281 22.4818 0.863281ZM23.7173 17.0486C24.9529 17.0486 26.0237 16.8427 26.8885 16.3897C27.7534 15.9366 28.4535 15.3601 28.9889 14.6188C29.5243 13.8774 29.8538 13.0538 30.0185 12.1065C30.1832 11.1593 30.1832 10.2121 30.0597 9.22364C29.8949 8.23522 29.6067 7.28799 29.1125 6.34076C28.6182 5.39353 28.0417 4.56984 27.3004 3.82853C26.559 3.08722 25.6942 2.51064 24.6646 2.05762C23.635 1.60459 22.523 1.39867 21.2875 1.39867C20.0108 1.39867 18.94 1.60459 18.0751 2.05762C17.2103 2.51064 16.5101 3.08722 16.0159 3.82853C15.4805 4.56984 15.1511 5.39353 14.9863 6.34076C14.8216 7.28799 14.8216 8.23522 14.9451 9.22364C15.1099 10.2121 15.3982 11.1593 15.8512 12.1065C16.3042 13.0538 16.922 13.8774 17.6633 14.6188C18.4046 15.3601 19.3107 15.9366 20.2991 16.3897C21.3287 16.8015 22.4818 17.0486 23.7173 17.0486Z" fill="black"/>
<path d="M34.5947 4.73306L36.6539 3.62109V10.4576C36.6951 11.1578 36.8187 11.8579 37.0246 12.4757C37.2305 13.0934 37.5188 13.67 37.9306 14.123C38.3013 14.576 38.7543 14.9879 39.3309 15.235C39.8663 15.5233 40.484 15.6468 41.1842 15.6468C42.049 15.6468 42.708 15.3585 43.2434 14.8232C43.7788 14.2878 44.1082 13.5876 44.3142 12.764C44.5201 11.9403 44.5613 11.0342 44.4789 10.087C44.3965 9.13976 44.1494 8.23371 43.7788 7.41003C43.4081 6.58634 42.9139 5.88622 42.2961 5.35082C41.6784 4.81543 40.9371 4.52714 40.1134 4.52714C39.8251 4.52714 39.4956 4.56833 39.2073 4.69188C38.919 4.81543 38.6308 4.93898 38.3425 5.10372C38.0542 5.26846 37.8071 5.47438 37.6012 5.6803C37.3541 5.88622 37.1893 6.13332 37.0658 6.33924C37.3952 5.63911 37.9306 5.06254 38.6308 4.60951C39.3721 4.15649 40.1546 3.95057 40.9783 3.95057C42.0079 3.95057 42.8727 4.1153 43.614 4.44477C44.3553 4.77425 44.9319 5.22727 45.4261 5.80385C45.8792 6.38042 46.2498 6.99818 46.4557 7.7395C46.6617 8.48081 46.7852 9.18094 46.7852 9.96344C46.7852 10.7459 46.6617 11.4461 46.4557 12.1874C46.2498 12.8875 45.8792 13.5464 45.4261 14.123C44.9731 14.6996 44.3553 15.1526 43.614 15.4821C42.8727 15.8116 42.0079 16.0175 41.0194 16.0175C39.9487 16.0175 39.0426 15.8528 38.3425 15.5645C37.6423 15.2762 37.107 14.8643 36.6951 14.3701V21.4126H34.6359V4.73306H34.5947Z" fill="black"/>
<path d="M51.5957 7.90423C51.5957 8.68673 51.7192 9.46923 51.9663 10.2929C52.2134 11.1166 52.5841 11.8167 53.0371 12.5168C53.4901 13.1758 54.0667 13.7112 54.7257 14.123C55.3846 14.5349 56.1259 14.7408 56.9084 14.7408C57.6497 14.7408 58.3087 14.576 58.8852 14.2878C59.4618 13.9583 59.956 13.5876 60.3679 13.1758C60.7797 12.764 61.1092 12.3109 61.3151 11.8991C61.5622 11.4872 61.6858 11.1578 61.6858 10.9519C61.6446 11.4872 61.4387 12.0638 61.1092 12.5992C60.7797 13.1346 60.3679 13.6288 59.8325 14.0818C59.2971 14.5349 58.7205 14.8643 58.0204 15.1526C57.3203 15.3997 56.5789 15.5645 55.7964 15.5645C54.7257 15.5645 53.7784 15.3997 52.9959 15.0703C52.2134 14.7408 51.5545 14.2878 51.0191 13.7112C50.4837 13.1346 50.113 12.5168 49.8248 11.7755C49.5777 11.0754 49.4541 10.2929 49.4541 9.5516C49.4541 8.522 49.6188 7.65713 49.9483 6.91582C50.2778 6.1745 50.7308 5.55674 51.2662 5.06254C51.8016 4.56833 52.4193 4.19767 53.1195 3.99175C53.8196 3.74465 54.5197 3.62109 55.2199 3.62109C55.7553 3.62109 56.2907 3.70346 56.7849 3.8682C57.3203 4.03293 57.7733 4.28004 58.2263 4.60951C58.6793 4.93898 59.05 5.30964 59.3795 5.72148C59.7089 6.1745 59.956 6.62753 60.162 7.16292C60.2443 7.41003 60.2031 7.61595 60.0796 7.78068C59.956 7.94542 59.7501 8.02779 59.4618 8.02779H51.5957V7.90423ZM54.808 3.90938C54.2726 3.90938 53.8196 3.99175 53.4078 4.19767C52.9959 4.40359 52.6665 4.65069 52.4194 4.98017C52.1722 5.30964 51.9663 5.72148 51.8016 6.13332C51.678 6.58634 51.5957 7.03937 51.5545 7.53358H58.3087C58.2263 7.24529 58.1028 6.91582 57.938 6.50398C57.7733 6.09214 57.5262 5.6803 57.2379 5.30964C56.9496 4.93898 56.6201 4.60951 56.2083 4.32122C55.7964 4.03293 55.3022 3.90938 54.808 3.90938Z" fill="black"/>
<path d="M62.8037 4.61197L64.8629 3.5V15.5257H62.8037V4.61197ZM65.11 5.22973C65.2748 4.98263 65.5219 4.77671 65.769 4.61197C66.0161 4.44723 66.3044 4.2825 66.6338 4.20013C66.9633 4.07658 67.2516 3.99421 67.5811 3.95302C67.9105 3.91184 68.1988 3.87066 68.5283 3.87066C69.4755 3.87066 70.258 3.99421 70.8758 4.20013C71.4935 4.40605 72.0289 4.73552 72.3996 5.10618C72.8114 5.47683 73.0997 5.92986 73.3056 6.42407C73.5116 6.91828 73.6763 7.45367 73.7587 7.98906C73.841 8.56564 73.8822 9.10103 73.9234 9.71879C73.9234 10.2954 73.9234 10.8719 73.9234 11.4073V15.5669H71.8642V11.2014C71.8642 10.7896 71.8642 10.3777 71.8642 9.84234C71.8642 9.34813 71.823 8.85393 71.7818 8.31853C71.7406 7.78314 71.6171 7.28893 71.4935 6.79472C71.37 6.30051 71.1641 5.88867 70.917 5.47683C70.6699 5.10618 70.2992 4.77671 69.8874 4.5296C69.4755 4.2825 68.9401 4.15894 68.2812 4.15894C67.7458 4.15894 67.334 4.20013 66.9633 4.2825C66.5926 4.36486 66.3044 4.44723 66.0573 4.5296C65.8101 4.61197 65.6042 4.73552 65.4807 4.85907C65.3159 5.02381 65.1924 5.14736 65.11 5.22973Z" fill="black"/>
</g>
<defs>
<clipPath id="clip0_4691_773">
<rect width="78.0849" height="32" fill="white"/>
</clipPath>
</defs>
</svg>
