<svg width="70" height="12" viewBox="0 0 70 12" fill="none" xmlns="http://www.w3.org/2000/svg">
<path fill-rule="evenodd" clip-rule="evenodd" d="M0.241211 1.01811L1.28514 2.14589V10.4422L0.515243 11.531L5.26514 11.544L4.40389 10.5459L4.31255 7.56439L8.8928 7.59032C10.3021 7.13661 11.7245 6.19032 11.8028 4.27181C11.7767 2.41811 10.6022 1.23848 9.23208 0.992188L0.241211 1.01811ZM4.15596 1.54959V6.87736L7.67923 6.90328C8.47523 6.28106 9.08854 5.81439 9.06244 4.32366C9.04939 3.11811 8.78841 2.05515 7.60093 1.54959H4.15596Z" fill="#333333"/>
<path fill-rule="evenodd" clip-rule="evenodd" d="M13.9951 0.966088L15.039 2.09386V10.3901L14.2691 11.479L19.019 11.492L18.1578 10.4938L18.0665 7.51237H18.0795L22.986 11.5309L27.0573 11.5049L23.3383 8.41977H20.2326L19.1365 7.52533L22.6337 7.53829C24.0169 7.09755 25.4523 6.15126 25.5175 4.23275C25.4914 2.37905 24.317 1.18646 22.9468 0.953125L13.9951 0.966088ZM17.9099 1.48461V6.81237L21.4331 6.83829C22.2291 6.21607 22.8424 5.74941 22.8163 4.25867C22.8033 3.05312 22.5423 1.99016 21.3548 1.48461H17.9099Z" fill="#333333"/>
<path fill-rule="evenodd" clip-rule="evenodd" d="M31.0111 0.953125H35.1086L40.4457 10.442C40.6806 11.1809 41.3722 11.0901 41.8289 11.4012H36.6614L37.4313 11.1679L37.3791 10.4549L36.0481 8.40681L31.507 8.43273L30.5414 10.4031C30.5153 10.6235 30.2543 10.8049 30.45 11.0772L30.8154 11.4142L28.584 11.3624L29.5496 11.0772L33.2164 3.67534V3.16979L31.6766 1.21238L31.0111 0.953125ZM31.8071 7.77162L33.6862 4.34941L35.6436 7.7457L31.8071 7.77162Z" fill="#333333"/>
<path fill-rule="evenodd" clip-rule="evenodd" d="M58.7406 0.964844H62.8381L68.1752 10.4667C68.41 11.2056 69.1016 11.1148 69.5584 11.4259H64.3909L65.1608 11.1926L65.1086 10.4796L63.7776 8.44445L59.2365 8.47038L58.2708 10.4407C58.2448 10.6611 57.9838 10.8426 58.1795 11.1148L58.5449 11.4519L56.3135 11.4L57.2791 11.1148L60.9459 3.71298V3.20743L59.3931 1.2241L58.7406 0.964844ZM59.5366 7.78334L61.4157 4.36113L63.3731 7.75742L59.5366 7.78334Z" fill="#333333"/>
<path fill-rule="evenodd" clip-rule="evenodd" d="M43.2517 0.847656L50.5592 0.886545C52.9081 1.41802 54.4087 2.7921 54.8654 5.19024L54.8524 7.06986C54.4218 9.20874 53.0125 10.6865 50.5462 11.4384L43.2256 11.4513V11.231C44.3348 11.1532 44.4261 11.0236 44.4261 10.4013V1.85876C44.4131 1.3921 44.3217 1.09395 43.2386 1.06803L43.2517 0.847656ZM47.4013 1.57358L47.3883 10.8161C48.3539 10.8161 49.189 10.9069 49.6588 10.6736C50.7288 10.2069 51.2247 9.48096 51.2769 8.80689L51.2508 3.36246C51.2508 2.49395 50.2591 1.87173 49.698 1.71617C49.2804 1.56062 48.4713 1.56062 47.4013 1.57358Z" fill="#333333"/>
</svg>
